<svg width="995" height="640" viewBox="0 0 995 640" fill="none" xmlns="http://www.w3.org/2000/svg">
<path d="M640.844 333.6L624.744 364.3C624.744 364.3 622.044 415.3 621.344 426.7C620.644 438.1 625.344 462.3 631.044 469.7C636.744 477.1 642.244 480.4 655.244 486.5C668.244 492.5 678.544 493.9 681.444 493.2C684.344 492.5 681.444 469 681.444 469C681.444 469 667.544 438.6 668.244 433.7C668.944 428.7 669.544 414.7 670.244 404.6C670.944 394.5 672.244 373.9 671.544 367.8C670.844 361.7 665.544 326.1 665.544 326.1L640.844 333.6Z" fill="#A9CBED"/>
<path d="M886.444 504.251C886.244 499.251 886.244 494.251 886.444 489.351C886.544 486.251 885.444 485.451 882.444 485.451C870.844 485.551 859.244 485.551 847.544 485.551C841.044 485.551 841.044 485.551 841.044 479.251C841.044 447.051 840.844 414.751 841.144 382.551C841.244 366.851 840.044 351.651 829.444 337.551C832.544 337.551 834.344 337.351 836.144 337.551C839.944 338.051 841.344 336.851 841.244 332.751C840.944 323.451 841.244 314.151 841.144 304.851C840.844 285.151 828.644 271.351 809.344 269.251C803.644 268.651 797.744 268.851 791.944 269.051C788.144 269.151 785.744 268.151 783.444 264.751C755.544 223.751 694.544 225.451 668.744 267.851C660.444 281.251 658.044 295.851 658.744 311.251C658.844 314.351 658.144 315.851 654.744 316.751C629.744 323.751 613.144 345.751 613.044 371.751C612.944 398.151 613.044 424.551 613.044 450.951C613.044 457.351 614.044 463.551 616.144 469.551C624.644 493.451 645.244 508.051 670.944 508.151C741.144 508.251 811.444 508.151 881.644 508.151C881.944 508.151 882.344 508.151 882.644 508.151C885.844 508.751 886.544 507.151 886.444 504.251ZM635.944 451.151C635.844 424.551 635.844 398.051 635.944 371.451C636.044 357.851 642.744 347.951 654.444 341.251C657.844 339.351 658.744 339.851 658.744 343.951C658.644 374.351 658.944 404.751 658.544 435.051C658.344 453.051 662.744 469.151 674.044 483.151C674.344 483.451 674.344 484.051 674.744 484.951C653.344 487.351 636.044 472.351 635.944 451.151ZM683.544 453.351C682.744 450.851 682.244 448.251 681.944 445.551C681.644 442.251 681.644 438.951 681.644 435.651C681.644 420.351 681.644 405.151 681.644 390.051C683.344 389.151 684.044 390.351 684.844 391.051C696.144 399.851 708.844 405.051 723.244 405.451C726.544 405.551 727.044 406.951 726.944 409.751C726.844 419.551 727.144 429.351 726.844 439.151C726.444 455.251 727.444 471.051 738.244 485.051C710.944 487.851 690.644 475.951 683.544 453.351ZM726.944 371.851C726.944 373.351 726.944 374.851 726.944 376.351C726.944 383.251 726.944 383.251 719.844 382.451C700.544 380.151 682.944 361.651 681.844 342.051C681.444 334.751 681.744 327.451 681.744 320.151H681.644C681.644 314.051 681.544 307.851 681.644 301.751C682.244 281.551 696.144 264.051 715.344 259.251C735.544 254.151 757.244 262.651 766.144 281.051C770.544 290.251 775.844 293.251 785.344 292.051C791.744 291.251 798.244 291.851 804.744 291.951C813.444 292.051 817.944 296.451 818.144 305.051C818.444 314.751 818.444 314.651 808.644 314.751C797.844 314.851 787.044 313.751 776.344 315.351C747.244 319.751 727.544 342.451 726.944 371.851ZM813.844 485.551C803.844 485.351 793.944 485.651 783.944 485.451C764.344 485.051 749.844 470.551 749.644 450.851C749.544 424.751 749.544 398.651 749.644 372.651C749.744 352.951 764.544 337.751 783.544 337.651C802.944 337.551 817.944 352.551 818.144 372.551C818.344 390.451 818.144 408.451 818.144 426.351C818.144 444.651 818.044 462.851 818.244 481.151C818.344 484.451 817.444 485.551 813.844 485.551Z" fill="#3664AD"/>
<path d="M169.632 167.616C156.096 183.456 136.8 192.96 114.624 192.96C72.864 192.96 40.896 159.552 40.896 117.216C40.896 74.88 72.864 41.184 114.624 41.184C136.512 41.184 155.52 50.976 169.056 65.664L189.216 48.96C171.648 28.224 145.44 15.264 114.624 15.264C58.464 15.264 14.112 61.056 14.112 117.216C14.112 173.664 58.464 218.88 114.624 218.88C145.728 218.88 172.224 205.632 189.792 184.608L169.632 167.616ZM235.762 138.24C238.93 115.488 256.21 102.24 278.386 102.24C300.274 102.24 316.114 115.488 319.282 138.24H235.762ZM345.202 148.32C345.202 105.696 316.69 78.624 278.386 78.624C240.082 78.624 209.554 105.696 209.554 148.32C209.554 190.944 240.082 218.88 278.386 218.88C304.594 218.88 328.786 207.072 340.306 183.168C333.106 180 324.754 177.696 317.842 174.528C310.066 188.064 295.378 195.264 279.25 195.264C256.21 195.264 238.93 181.44 235.762 158.688H344.914C345.202 155.52 345.202 151.488 345.202 148.32ZM404.721 143.424C404.721 114.912 423.729 104.256 442.737 104.256C461.169 104.256 472.401 117.216 472.401 139.968V216H498.609V138.24C498.609 100.224 480.465 78.624 446.769 78.624C432.081 78.624 412.497 85.536 404.721 101.664V81.504H378.513V216H404.721V143.424ZM577.082 81.504V30.816H550.874V81.504H526.682V103.68H550.874V216H577.082V103.68H605.594V81.504H577.082ZM661.502 167.04C661.502 131.328 672.446 103.68 698.366 103.68C703.838 103.68 711.038 104.832 718.238 108.288L722.27 83.808C718.526 81.216 708.446 78.624 698.942 78.624C681.374 78.624 668.414 87.84 661.502 111.744V81.504H635.294V216H661.502V167.04ZM806.888 218.88C845.192 218.88 877.448 190.944 877.448 148.32C877.448 105.696 845.192 78.624 806.888 78.624C768.584 78.624 736.616 105.696 736.616 148.32C736.616 190.944 768.584 218.88 806.888 218.88ZM806.888 193.536C782.408 193.536 762.536 175.968 762.536 148.32C762.536 121.248 782.408 104.256 806.888 104.256C830.792 104.256 851.24 121.248 851.24 148.32C851.24 175.968 830.792 193.536 806.888 193.536ZM169.632 455.616C156.096 471.456 136.8 480.96 114.624 480.96C72.864 480.96 40.896 447.552 40.896 405.216C40.896 362.88 72.864 329.184 114.624 329.184C136.512 329.184 155.52 338.976 169.056 353.664L189.216 336.96C171.648 316.224 145.44 303.264 114.624 303.264C58.464 303.264 14.112 349.056 14.112 405.216C14.112 461.664 58.464 506.88 114.624 506.88C145.728 506.88 172.224 493.632 189.792 472.608L169.632 455.616ZM235.762 426.24C238.93 403.488 256.21 390.24 278.386 390.24C300.274 390.24 316.114 403.488 319.282 426.24H235.762ZM345.202 436.32C345.202 393.696 316.69 366.624 278.386 366.624C240.082 366.624 209.554 393.696 209.554 436.32C209.554 478.944 240.082 506.88 278.386 506.88C304.594 506.88 328.786 495.072 340.306 471.168C333.106 468 324.754 465.696 317.842 462.528C310.066 476.064 295.378 483.264 279.25 483.264C256.21 483.264 238.93 469.44 235.762 446.688H344.914C345.202 443.52 345.202 439.488 345.202 436.32ZM404.433 369.504H378.513V504H404.433V369.504ZM373.329 319.968C373.329 330.048 381.393 336.96 391.473 336.96C401.553 336.96 409.617 330.048 409.617 319.968C409.617 309.888 401.553 302.976 391.473 302.976C381.393 302.976 373.329 309.888 373.329 319.968ZM448.263 296.352V504H474.471V296.352H448.263ZM544.214 369.504H518.294V504H544.214V369.504ZM513.11 319.968C513.11 330.048 521.174 336.96 531.254 336.96C541.334 336.96 549.398 330.048 549.398 319.968C549.398 309.888 541.334 302.976 531.254 302.976C521.174 302.976 513.11 309.888 513.11 319.968Z" fill="#2F2929"/>
</svg>
